<svg xmlns="http://www.w3.org/2000/svg" viewBox="0 0 24.33 29.33"><defs><style>.cls-1{opacity:0.3;}.cls-2{fill:none;stroke:#395062;stroke-miterlimit:10;stroke-width:2px;}</style></defs><title>Asset 1</title><g id="Layer_2" data-name="Layer 2"><g id="Layer_1-2" data-name="Layer 1"><g class="cls-1"><path class="cls-2" d="M12.41,19.88,2.14,27.37V4.68a3.06,3.06,0,0,1,3.05-3H19.64A3.06,3.06,0,0,1,22.7,4.68V27.36Z"/><path class="cls-2" d="M22.7,28a.63.63,0,0,0,.62-.63V4.72a3.6,3.6,0,0,0-.69-2.17,3.72,3.72,0,0,0-3-1.55H5.2A3.71,3.71,0,0,0,2.34,2.37a3.77,3.77,0,0,0-.82,2.35V27.36a.62.62,0,0,0,.93.54h0c.43-.28.84-.61,1.25-.91l2.56-1.87,3-2.16,2.45-1.79,1-.74h-.62c.4.32.84.61,1.25.91l2.57,1.87,3,2.16,2.45,1.79,1,.74a.62.62,0,0,0,.85-.22.64.64,0,0,0-.22-.86h0c-.41-.31-.83-.6-1.25-.91L19.19,24l-3-2.16-2.46-1.79-1-.74a.6.6,0,0,0-.63,0h0c-.43.28-.84.61-1.25.91L8.28,22.13l-3,2.16L2.85,26.08l-1,.74.94.54V4.6a1.8,1.8,0,0,1,0-.22c0-.14,0,.12,0,0s0-.07,0-.1l.09-.37c0-.07.05-.13.07-.2s0,0,0,0,0-.08,0-.1.12-.23.19-.34.08-.15.12-.16-.07.09,0,0a.27.27,0,0,1,.07-.08,2.13,2.13,0,0,1,.26-.26l.09-.08c.07-.06,0-.06,0,0s.1-.08.13-.1a3.79,3.79,0,0,1,.34-.2l.11-.05c.08,0-.15.05,0,0l.16-.06.36-.1.13,0c.14,0-.11,0,0,0H20s-.16,0,0,0a2.71,2.71,0,0,1,.41.09l.16.05.1,0c.08,0-.14-.07,0,0a3,3,0,0,1,.36.19l.14.09s.11.1,0,0,0,0,0,0l.29.26.12.14c.07.09,0,0,0,0l.05.08c.08.11.15.23.22.35s.09.15.08.17,0-.12,0,0l0,.09c0,.13.08.26.11.39a.78.78,0,0,1,0,.21s0-.16,0,0a.28.28,0,0,0,0,.09V27.36A.65.65,0,0,0,22.7,28Z"/></g></g></g></svg>