<svg id="Layer_1" data-name="Layer 1" xmlns="http://www.w3.org/2000/svg" viewBox="0 0 50 50"><defs><style>.cls-1{fill:#ff9300;}</style></defs><title>icons</title><path class="cls-1" d="M25,0A25,25,0,1,0,50,25,25,25,0,0,0,25,0ZM14.33,15.84H36.75a.91.91,0,0,1,0,1.82H14.33a.91.91,0,1,1,0-1.82ZM11.27,34.16a.92.92,0,0,1-.92-.91.9.9,0,0,1,.9-.91h0a.91.91,0,0,1,0,1.82Zm0-8.25a.92.92,0,0,1-.92-.91.9.9,0,0,1,.9-.91h0a.91.91,0,1,1,0,1.82Zm0-8.25a.92.92,0,0,1-.92-.91.9.9,0,0,1,.9-.91h0a.91.91,0,1,1,0,1.82Zm25.48,16.5H14.33a.91.91,0,1,1,0-1.82H36.75a.91.91,0,0,1,0,1.82Zm2-8.25H14.33a.91.91,0,1,1,0-1.82H38.75a.91.91,0,1,1,0,1.82Z"/></svg>