<svg id="Layer_1" data-name="Layer 1" xmlns="http://www.w3.org/2000/svg" viewBox="0 0 50 50"><defs><style>.cls-1{fill:#ff9300;}</style></defs><title>icons</title><path class="cls-1" d="M25,0A25,25,0,1,0,50,25,25,25,0,0,0,25,0ZM36,35.26a1.35,1.35,0,0,1-2.08,1.14L25,30.79,16.08,36.4a1.34,1.34,0,0,1-.72.21,1.4,1.4,0,0,1-.66-.16,1.37,1.37,0,0,1-.7-1.19V14.38A1.36,1.36,0,0,1,15.36,13H34.64A1.36,1.36,0,0,1,36,14.38Z"/><path class="cls-1" d="M15.82,34.42l8.46-5.33a1.38,1.38,0,0,1,1.44,0l8.46,5.33V14.84H15.82Z"/></svg>