<svg id="Layer_1" data-name="Layer 1" xmlns="http://www.w3.org/2000/svg" viewBox="0 0 50 50"><defs><style>.cls-1{fill:#ff9300;}</style></defs><title>icons</title><path class="cls-1" d="M25,0A25,25,0,1,0,50,25,25,25,0,0,0,25,0ZM21.66,37.61H14.53a2.14,2.14,0,0,1-2.14-2.14V28.34a.91.91,0,0,1,1.82,0v7.13a.32.32,0,0,0,.32.32h7.13a.91.91,0,1,1,0,1.82Zm0-23.4H14.53a.32.32,0,0,0-.32.32v7.13a.91.91,0,0,1-1.82,0V14.53a2.14,2.14,0,0,1,2.14-2.14h7.13a.91.91,0,0,1,0,1.82Zm16,21.26a2.14,2.14,0,0,1-2.14,2.14H28.34a.91.91,0,0,1,0-1.82h7.13a.32.32,0,0,0,.32-.32V28.34a.91.91,0,1,1,1.82,0Zm0-13.81a.91.91,0,0,1-1.82,0V14.53a.32.32,0,0,0-.32-.32H28.34a.91.91,0,0,1,0-1.82h7.13a2.14,2.14,0,0,1,2.14,2.14Z"/></svg>