<svg id="Layer_1" data-name="Layer 1" xmlns="http://www.w3.org/2000/svg" viewBox="0 0 50 50"><defs><style>.cls-1{fill:#ff9300;}</style></defs><title>icons</title><path class="cls-1" d="M25,18.87A6.13,6.13,0,1,0,31.13,25,6.14,6.14,0,0,0,25,18.87Z"/><path class="cls-1" d="M37.46,22.13a12.47,12.47,0,0,0-1.62-3.92,1.73,1.73,0,0,1,0-1.87l1-1.6-1.65-1.65-1.6,1.05a1.73,1.73,0,0,1-1.87,0,12.73,12.73,0,0,0-3.92-1.63,1.72,1.72,0,0,1-1.31-1.33l-.39-1.87H23.83l-.39,1.87a1.72,1.72,0,0,1-1.31,1.33,12.73,12.73,0,0,0-3.92,1.63,1.73,1.73,0,0,1-1.87,0l-1.6-1.05-1.65,1.65,1.05,1.6a1.73,1.73,0,0,1,0,1.87,12.47,12.47,0,0,0-1.62,3.92,1.74,1.74,0,0,1-1.34,1.31l-1.87.39v2.34l1.87.39a1.72,1.72,0,0,1,1.33,1.31,12.73,12.73,0,0,0,1.63,3.92,1.73,1.73,0,0,1,0,1.87l-1.05,1.6,1.65,1.65,1.6-1a1.73,1.73,0,0,1,1.87,0,12.73,12.73,0,0,0,3.92,1.63,1.72,1.72,0,0,1,1.31,1.33l.39,1.87h2.34l.38-1.87a1.74,1.74,0,0,1,1.32-1.33,12.73,12.73,0,0,0,3.92-1.63,1.73,1.73,0,0,1,1.87,0l1.6,1,1.65-1.65-1-1.6a1.73,1.73,0,0,1,0-1.87,12.47,12.47,0,0,0,1.62-3.92,1.75,1.75,0,0,1,1.33-1.31l1.88-.39V23.83l-1.87-.39A1.74,1.74,0,0,1,37.46,22.13ZM25,32.94A7.94,7.94,0,1,1,32.94,25,7.95,7.95,0,0,1,25,32.94Z"/><path class="cls-1" d="M25,0A25,25,0,1,0,50,25,25,25,0,0,0,25,0ZM42.49,26.24a1.74,1.74,0,0,1-1.38,1.7l-2,.4a12.88,12.88,0,0,1-1.78,4.41l1.09,1.57a1.74,1.74,0,0,1-.22,2.17l-1.76,1.76a1.74,1.74,0,0,1-2.17.22l-1.66-1.1a13,13,0,0,1-4.38,1.87l-.34,1.87a1.74,1.74,0,0,1-1.7,1.38H23.76a1.74,1.74,0,0,1-1.7-1.38l-.4-2a12.8,12.8,0,0,1-4.41-1.78l-1.57,1.09a1.74,1.74,0,0,1-2.17-.22l-1.76-1.76a1.74,1.74,0,0,1-.22-2.17l1.1-1.66a13.08,13.08,0,0,1-1.87-4.38l-1.87-.34a1.74,1.74,0,0,1-1.38-1.7V23.76a1.72,1.72,0,0,1,1.38-1.69l1.95-.41a12.88,12.88,0,0,1,1.78-4.41l-1.09-1.57a1.74,1.74,0,0,1,.22-2.17l1.76-1.76a1.73,1.73,0,0,1,2.17-.22l1.66,1.1a13,13,0,0,1,4.38-1.87l.34-1.87a1.74,1.74,0,0,1,1.7-1.38h2.48a1.74,1.74,0,0,1,1.7,1.38l.4,1.95a12.8,12.8,0,0,1,4.41,1.78l1.56-1.09a1.74,1.74,0,0,1,2.18.22l1.76,1.76a1.74,1.74,0,0,1,.22,2.17l-1.1,1.66a13.08,13.08,0,0,1,1.87,4.38l1.87.34a1.74,1.74,0,0,1,1.38,1.7Z"/></svg>