<svg id="Layer_1" data-name="Layer 1" xmlns="http://www.w3.org/2000/svg" viewBox="0 0 50 50"><defs><style>.cls-1{fill:#ff9300;}</style></defs><title>icons</title><path class="cls-1" d="M25,0A25,25,0,1,0,50,25,25,25,0,0,0,25,0ZM37.35,37.79A1.36,1.36,0,0,1,36,39.15H29.1a1.36,1.36,0,0,1-1.36-1.36V30.46A.44.44,0,0,0,27.3,30H22.7a.44.44,0,0,0-.44.44v7.33a1.36,1.36,0,0,1-1.36,1.36H14a1.36,1.36,0,0,1-1.36-1.36V25.42a.91.91,0,0,1,1.82,0V37.33h6V30.46A2.26,2.26,0,0,1,22.7,28.2h4.6a2.26,2.26,0,0,1,2.26,2.26v6.87h6V25.42a.91.91,0,1,1,1.82,0Zm4.74-11.88a.9.9,0,0,1-.6-.23L25.06,11.22c0-.05-.07-.05-.12,0L8.51,25.68a.9.9,0,0,1-1.28-.08.91.91,0,0,1,.08-1.28L23.74,9.86a1.85,1.85,0,0,1,2.52,0L42.69,24.32a.91.91,0,0,1-.6,1.59Z"/></svg>